# This file is brought to you by Roblox Corporation
# Generated by Roblox Studio

mtllib left.mtl

g Meshpart1

v 0.565785 0.600996 -0.55252 
v 0.619633 0.802651 0.56288 
v 0.616333 0.600996 0.56288 
v 0.557101 0.414542 0.593474 
v 0.592572 0.802651 -0.585379 
v 0.592572 0.998738 -0.585379 
v 0.592572 0.998738 0.56288 
v 0.592572 0.414542 -0.585379 
v 0.592572 0.260607 0.56288 
v 0.561723 0.260607 -0.585379 
v 0.568641 0.148574 -0.556485 
v 0.560567 0.148574 0.56288 
v 0.535165 1.02646 0.505473 
v 0.592572 0.998738 -0.585379 
v 0.535165 1.02646 -0.527972 
v 0.592572 0.998738 0.56288 
v 0.592572 0.998738 -0.585379 
v -0.49828 1.02646 -0.527972 
v 0.535165 1.02646 -0.527972 
v -0.555687 0.998738 -0.585379 
v 0.592572 0.998738 0.56288 
v -0.49828 1.02646 0.505473 
v -0.555687 0.998738 0.56288 
v 0.535165 1.02646 0.505473 
v -0.49828 1.02646 0.505473 
v 0.535165 1.02646 -0.527972 
v -0.49828 1.02646 -0.527972 
v 0.535165 1.02646 0.505473 
v 0.616333 0.600996 0.56288 
v -0.55088 0.802651 0.526772 
v -0.555687 0.600996 0.596349 
v 0.619633 0.802651 0.56288 
v 0.592572 0.998738 0.56288 
v -0.555687 0.998738 0.56288 
v 0.557101 0.414542 0.593474 
v -0.555687 0.414542 0.52367 
v -0.555687 0.260607 0.56288 
v 0.592572 0.260607 0.56288 
v 0.560567 0.148574 0.56288 
v -0.555687 0.148574 0.56288 
v -0.555687 0.998738 -0.585379 
v -0.555687 0.998738 0.56288 
v -0.49828 1.02646 -0.527972 
v -0.49828 1.02646 0.505473 
v -0.55088 0.802651 0.526772 
v -0.575321 0.802651 -0.585379 
v -0.555687 0.600996 -0.585379 
v -0.555687 0.998738 -0.585379 
v -0.555687 0.998738 0.56288 
v -0.555687 0.600996 0.596349 
v -0.555687 0.414542 0.52367 
v -0.555687 0.414542 -0.585379 
v -0.555687 0.260607 -0.585379 
v -0.555687 0.260607 0.56288 
v -0.555687 0.148574 -0.585379 
v -0.555687 0.148574 0.56288 
v 0.568641 0.148574 -0.556485 
v -0.555687 0.148574 0.56288 
v -0.555687 0.148574 -0.585379 
v 0.560567 0.148574 0.56288 
v -0.575321 0.802651 -0.585379 
v 0.592572 0.802651 -0.585379 
v 0.565785 0.600996 -0.55252 
v -0.555687 0.998738 -0.585379 
v 0.592572 0.998738 -0.585379 
v -0.555687 0.600996 -0.585379 
v -0.555687 0.414542 -0.585379 
v 0.592572 0.414542 -0.585379 
v 0.561723 0.260607 -0.585379 
v -0.555687 0.260607 -0.585379 
v -0.555687 0.148574 -0.585379 
v 0.568641 0.148574 -0.556485 

vn 1 -0.0787402 -0.023622 
vn 1 -0.00787402 -0.023622 
vn 1 -0.0787402 -0.023622 
vn 1 -0.0393701 0 
vn 1 0 -0.023622 
vn 1 0.0708661 -0.00787402 
vn 1 0.0708661 -0.00787402 
vn 1 -0.0393701 0 
vn 1 -0.0314961 0 
vn 1 -0.0314961 0 
vn 0.992126 -0.110236 -0.00787402 
vn 0.992126 -0.110236 -0.00787402 
vn 0.433071 0.897638 0 
vn 0.433071 0.897638 0 
vn 0.433071 0.897638 0 
vn 0.433071 0.897638 0 
vn 0 0.897638 -0.433071 
vn 0 0.897638 -0.433071 
vn 0 0.897638 -0.433071 
vn 0 0.897638 -0.433071 
vn 0 0.897638 0.433071 
vn 0 0.897638 0.433071 
vn 0 0.897638 0.433071 
vn 0 0.897638 0.433071 
vn 0 1 0 
vn 0 1 0 
vn 0 1 0 
vn 0 1 0 
vn -0.00787402 0.0551181 1 
vn -0.00787402 0.0393701 1 
vn -0.00787402 0.0393701 1 
vn -0.00787402 0.0472441 1 
vn -0.015748 -0.0944882 0.992126 
vn -0.015748 -0.0944882 0.992126 
vn -0.023622 -0.0472441 1 
vn -0.023622 -0.0472441 1 
vn -0.015748 0.015748 1 
vn -0.015748 0.015748 1 
vn 0 0 1 
vn 0 0 1 
vn -0.433071 0.897638 0 
vn -0.433071 0.897638 0 
vn -0.433071 0.897638 0 
vn -0.433071 0.897638 0 
vn -1 0 0.00787402 
vn -1 0 0.00787402 
vn -1 -0.015748 0.00787402 
vn -1 0.0393701 0.00787402 
vn -1 0.0393701 0.00787402 
vn -1 -0.015748 0.00787402 
vn -1 0 0 
vn -1 0 0 
vn -1 0 0 
vn -1 0 0 
vn -1 0 0 
vn -1 0 0 
vn 0 -1 0 
vn 0 -1 0 
vn 0 -1 0 
vn 0 -1 0 
vn 0.00787402 -0.0393701 -1 
vn 0.00787402 -0.0393701 -1 
vn 0.015748 0 -1 
vn 0 0 -1 
vn 0 0 -1 
vn 0.015748 0 -1 
vn 0.00787402 0.0472441 -1 
vn 0.00787402 0.0472441 -1 
vn 0.00787402 -0.0551181 -1 
vn 0.00787402 -0.0551181 -1 
vn 0.015748 -0.125984 -0.992126 
vn 0.015748 -0.125984 -0.992126 

vt 58.0698 -36.9983 
vt 57.9303 -36.9731 
vt 57.9303 -36.9983 
vt 57.9265 -37.0216 
vt 58.0739 -36.9731 
vt 58.0739 -36.9486 
vt 57.9303 -36.9486 
vt 58.0739 -37.0216 
vt 57.9303 -37.0409 
vt 58.0739 -37.0409 
vt 58.0702 -37.0549 
vt 57.9303 -37.0549 
vt 57.9359 -36.9375 
vt 57.9287 -37.0739 
vt 57.9359 -37.0667 
vt 57.9287 -36.9303 
vt 57.9287 -37.0739 
vt 58.0651 -37.0667 
vt 57.9359 -37.0667 
vt 58.0722 -37.0739 
vt 57.9287 -36.9303 
vt 58.0651 -36.9375 
vt 58.0722 -36.9303 
vt 57.9359 -36.9375 
vt 58.0651 -36.9375 
vt 57.9359 -37.0667 
vt 58.0651 -37.0667 
vt 57.9359 -36.9375 
vt 58.0743 -36.9983 
vt 57.9284 -36.9731 
vt 57.9278 -36.9983 
vt 58.0747 -36.9731 
vt 58.0713 -36.9486 
vt 57.9278 -36.9486 
vt 58.0669 -37.0216 
vt 57.9278 -37.0216 
vt 57.9278 -37.0409 
vt 58.0713 -37.0409 
vt 58.0673 -37.0549 
vt 57.9278 -37.0549 
vt 57.9261 -36.9486 
vt 58.0697 -36.9486 
vt 57.9333 -36.9451 
vt 58.0625 -36.9451 
vt 58.0652 -36.9731 
vt 57.9261 -36.9731 
vt 57.9261 -36.9983 
vt 57.9261 -36.9486 
vt 58.0697 -36.9486 
vt 58.0739 -36.9983 
vt 58.0648 -37.0216 
vt 57.9261 -37.0216 
vt 57.9261 -37.0409 
vt 58.0697 -37.0409 
vt 57.9261 -37.0549 
vt 58.0697 -37.0549 
vt 58.0683 -37.0702 
vt 57.9278 -36.9303 
vt 57.9278 -37.0739 
vt 58.0673 -36.9303 
vt 58.0747 -36.9731 
vt 57.9287 -36.9731 
vt 57.932 -36.9983 
vt 58.0722 -36.9486 
vt 57.9287 -36.9486 
vt 58.0722 -36.9983 
vt 58.0722 -37.0216 
vt 57.9287 -37.0216 
vt 57.9326 -37.0409 
vt 58.0722 -37.0409 
vt 58.0722 -37.0549 
vt 57.9317 -37.0549 

usemtl Meshpart1Mtl

f 1/1/1 2/2/2 3/3/3 
f 4/4/4 1/1/1 3/3/3 
f 2/2/2 1/1/1 5/5/5 
f 6/6/6 2/2/2 5/5/5 
f 2/2/2 6/6/6 7/7/7 
f 1/1/1 4/4/4 8/8/8 
f 9/9/9 8/8/8 4/4/4 
f 8/8/8 9/9/9 10/10/10 
f 9/9/9 11/11/11 10/10/10 
f 11/11/11 9/9/9 12/12/12 
f 13/13/13 14/14/14 15/15/15 
f 16/16/16 14/14/14 13/13/13 
f 17/17/17 18/18/18 19/19/19 
f 18/18/18 17/17/17 20/20/20 
f 21/21/21 22/22/22 23/23/23 
f 22/22/22 21/21/21 24/24/24 
f 25/25/25 26/26/26 27/27/27 
f 26/26/26 25/25/25 28/28/28 
f 29/29/29 30/30/30 31/31/31 
f 30/30/30 29/29/29 32/32/32 
f 30/30/30 32/32/32 33/33/33 
f 30/30/30 33/33/33 34/34/34 
f 31/31/31 35/35/35 29/29/29 
f 35/35/35 31/31/31 36/36/36 
f 37/37/37 35/35/35 36/36/36 
f 37/37/37 38/38/38 35/35/35 
f 37/37/37 39/39/39 38/38/38 
f 39/39/39 37/37/37 40/40/40 
f 41/41/41 42/42/42 43/43/43 
f 43/43/43 42/42/42 44/44/44 
f 45/45/45 46/46/46 47/47/47 
f 45/45/45 48/48/48 46/46/46 
f 48/48/48 45/45/45 49/49/49 
f 47/47/47 50/50/50 45/45/45 
f 47/47/47 51/51/51 50/50/50 
f 51/51/51 47/47/47 52/52/52 
f 51/51/51 52/52/52 53/53/53 
f 53/53/53 54/54/54 51/51/51 
f 54/54/54 53/53/53 55/55/55 
f 55/55/55 56/56/56 54/54/54 
f 57/57/57 58/58/58 59/59/59 
f 58/58/58 57/57/57 60/60/60 
f 61/61/61 62/62/62 63/63/63 
f 64/64/64 62/62/62 61/61/61 
f 64/64/64 65/65/65 62/62/62 
f 61/61/61 63/63/63 66/66/66 
f 63/63/63 67/67/67 66/66/66 
f 67/67/67 63/63/63 68/68/68 
f 67/67/67 68/68/68 69/69/69 
f 67/67/67 69/69/69 70/70/70 
f 69/69/69 71/71/71 70/70/70 
f 71/71/71 69/69/69 72/72/72 

