# This file is brought to you by Roblox Corporation
# Generated by Roblox Studio

mtllib right.mtl

g Meshpart1

v -0.571477 0.600996 0.56349 
v -0.625324 0.802651 -0.55191 
v -0.622024 0.600996 -0.55191 
v -0.562793 0.414542 -0.582503 
v -0.598264 0.802651 0.596349 
v -0.598264 0.998738 0.596349 
v -0.598264 0.998738 -0.55191 
v -0.598264 0.414542 0.596349 
v -0.598264 0.260607 -0.55191 
v -0.567415 0.260607 0.596349 
v -0.574333 0.148574 0.567455 
v -0.566258 0.148574 -0.55191 
v -0.540857 1.02646 -0.494503 
v -0.598264 0.998738 0.596349 
v -0.540857 1.02646 0.538942 
v -0.598264 0.998738 -0.55191 
v -0.598264 0.998738 0.596349 
v 0.492588 1.02646 0.538942 
v -0.540857 1.02646 0.538942 
v 0.549995 0.998738 0.596349 
v -0.598264 0.998738 -0.55191 
v 0.492588 1.02646 -0.494503 
v 0.549995 0.998738 -0.55191 
v -0.540857 1.02646 -0.494503 
v 0.492588 1.02646 -0.494503 
v -0.540857 1.02646 0.538942 
v 0.492588 1.02646 0.538942 
v -0.540857 1.02646 -0.494503 
v -0.622024 0.600996 -0.55191 
v 0.545189 0.802651 -0.515802 
v 0.549995 0.600996 -0.585379 
v -0.625324 0.802651 -0.55191 
v -0.598264 0.998738 -0.55191 
v 0.549995 0.998738 -0.55191 
v -0.562793 0.414542 -0.582503 
v 0.549995 0.414542 -0.5127 
v 0.549995 0.260607 -0.55191 
v -0.598264 0.260607 -0.55191 
v -0.566258 0.148574 -0.55191 
v 0.549995 0.148574 -0.55191 
v 0.549995 0.998738 0.596349 
v 0.549995 0.998738 -0.55191 
v 0.492588 1.02646 0.538942 
v 0.492588 1.02646 -0.494503 
v 0.545189 0.802651 -0.515802 
v 0.56963 0.802651 0.596349 
v 0.549995 0.600996 0.596349 
v 0.549995 0.998738 0.596349 
v 0.549995 0.998738 -0.55191 
v 0.549995 0.600996 -0.585379 
v 0.549995 0.414542 -0.5127 
v 0.549995 0.414542 0.596349 
v 0.549995 0.260607 0.596349 
v 0.549995 0.260607 -0.55191 
v 0.549995 0.148574 0.596349 
v 0.549995 0.148574 -0.55191 
v -0.574333 0.148574 0.567455 
v 0.549995 0.148574 -0.55191 
v 0.549995 0.148574 0.596349 
v -0.566258 0.148574 -0.55191 
v 0.56963 0.802651 0.596349 
v -0.598264 0.802651 0.596349 
v -0.571477 0.600996 0.56349 
v 0.549995 0.998738 0.596349 
v -0.598264 0.998738 0.596349 
v 0.549995 0.600996 0.596349 
v 0.549995 0.414542 0.596349 
v -0.598264 0.414542 0.596349 
v -0.567415 0.260607 0.596349 
v 0.549995 0.260607 0.596349 
v 0.549995 0.148574 0.596349 
v -0.574333 0.148574 0.567455 

vn -1 -0.0787402 0.023622 
vn -1 -0.00787402 0.023622 
vn -1 -0.0787402 0.023622 
vn -1 -0.0393701 0 
vn -1 0 0.023622 
vn -1 0.0708661 0.00787402 
vn -1 0.0708661 0.00787402 
vn -1 -0.0393701 0 
vn -1 -0.0314961 0 
vn -1 -0.0314961 0 
vn -0.992126 -0.110236 0.00787402 
vn -0.992126 -0.110236 0.00787402 
vn -0.433071 0.897638 0 
vn -0.433071 0.897638 0 
vn -0.433071 0.897638 0 
vn -0.433071 0.897638 0 
vn 0 0.897638 0.433071 
vn 0 0.897638 0.433071 
vn 0 0.897638 0.433071 
vn 0 0.897638 0.433071 
vn 0 0.897638 -0.433071 
vn 0 0.897638 -0.433071 
vn 0 0.897638 -0.433071 
vn 0 0.897638 -0.433071 
vn 0 1 0 
vn 0 1 0 
vn 0 1 0 
vn 0 1 0 
vn 0.00787402 0.0551181 -1 
vn 0.00787402 0.0393701 -1 
vn 0.00787402 0.0393701 -1 
vn 0.00787402 0.0472441 -1 
vn 0.015748 -0.0944882 -0.992126 
vn 0.015748 -0.0944882 -0.992126 
vn 0.023622 -0.0472441 -1 
vn 0.023622 -0.0472441 -1 
vn 0.015748 0.015748 -1 
vn 0.015748 0.015748 -1 
vn 0 0 -1 
vn 0 0 -1 
vn 0.433071 0.897638 0 
vn 0.433071 0.897638 0 
vn 0.433071 0.897638 0 
vn 0.433071 0.897638 0 
vn 1 0 -0.00787402 
vn 1 0 -0.00787402 
vn 1 -0.015748 -0.00787402 
vn 1 0.0393701 -0.00787402 
vn 1 0.0393701 -0.00787402 
vn 1 -0.015748 -0.00787402 
vn 1 0 0 
vn 1 0 0 
vn 1 0 0 
vn 1 0 0 
vn 1 0 0 
vn 1 0 0 
vn 0 -1 0 
vn 0 -1 0 
vn 0 -1 0 
vn 0 -1 0 
vn -0.00787402 -0.0393701 1 
vn -0.00787402 -0.0393701 1 
vn -0.015748 0 1 
vn 0 0 1 
vn 0 0 1 
vn -0.015748 0 1 
vn -0.00787402 0.0472441 1 
vn -0.00787402 0.0472441 1 
vn -0.00787402 -0.0551181 1 
vn -0.00787402 -0.0551181 1 
vn -0.015748 -0.125984 0.992126 
vn -0.015748 -0.125984 0.992126 

vt 8.06975 -58.9983 
vt 7.93033 -58.9731 
vt 7.93033 -58.9983 
vt 7.9265 -59.0216 
vt 8.07386 -58.9731 
vt 8.07386 -58.9486 
vt 7.93033 -58.9486 
vt 8.07386 -59.0216 
vt 7.93033 -59.0409 
vt 8.07386 -59.0409 
vt 8.07025 -59.0549 
vt 7.93033 -59.0549 
vt 7.93587 -58.9375 
vt 7.9287 -59.0739 
vt 7.93587 -59.0667 
vt 7.9287 -58.9303 
vt 7.9287 -59.0739 
vt 8.06505 -59.0667 
vt 7.93587 -59.0667 
vt 8.07223 -59.0739 
vt 7.9287 -58.9303 
vt 8.06505 -58.9375 
vt 8.07223 -58.9303 
vt 7.93587 -58.9375 
vt 8.06505 -58.9375 
vt 7.93587 -59.0667 
vt 8.06505 -59.0667 
vt 7.93587 -58.9375 
vt 8.07427 -58.9983 
vt 7.92837 -58.9731 
vt 7.92777 -58.9983 
vt 8.07468 -58.9731 
vt 8.0713 -58.9486 
vt 7.92777 -58.9486 
vt 8.06687 -59.0216 
vt 7.92777 -59.0216 
vt 7.92777 -59.0409 
vt 8.0713 -59.0409 
vt 8.0673 -59.0549 
vt 7.92777 -59.0549 
vt 7.92614 -58.9486 
vt 8.06967 -58.9486 
vt 7.93332 -58.9451 
vt 8.0625 -58.9451 
vt 8.06516 -58.9731 
vt 7.92614 -58.9731 
vt 7.92614 -58.9983 
vt 7.92614 -58.9486 
vt 8.06967 -58.9486 
vt 8.07386 -58.9983 
vt 8.06477 -59.0216 
vt 7.92614 -59.0216 
vt 7.92614 -59.0409 
vt 8.06967 -59.0409 
vt 7.92614 -59.0549 
vt 8.06967 -59.0549 
vt 8.06831 -59.0702 
vt 7.92777 -58.9303 
vt 7.92777 -59.0739 
vt 8.0673 -58.9303 
vt 8.07468 -58.9731 
vt 7.9287 -58.9731 
vt 7.93205 -58.9983 
vt 8.07223 -58.9486 
vt 7.9287 -58.9486 
vt 8.07223 -58.9983 
vt 8.07223 -59.0216 
vt 7.9287 -59.0216 
vt 7.93255 -59.0409 
vt 8.07223 -59.0409 
vt 8.07223 -59.0549 
vt 7.93169 -59.0549 

usemtl Meshpart1Mtl

f 1/1/1 2/2/2 3/3/3 
f 4/4/4 1/1/1 3/3/3 
f 2/2/2 1/1/1 5/5/5 
f 6/6/6 2/2/2 5/5/5 
f 2/2/2 6/6/6 7/7/7 
f 1/1/1 4/4/4 8/8/8 
f 9/9/9 8/8/8 4/4/4 
f 8/8/8 9/9/9 10/10/10 
f 9/9/9 11/11/11 10/10/10 
f 11/11/11 9/9/9 12/12/12 
f 13/13/13 14/14/14 15/15/15 
f 16/16/16 14/14/14 13/13/13 
f 17/17/17 18/18/18 19/19/19 
f 18/18/18 17/17/17 20/20/20 
f 21/21/21 22/22/22 23/23/23 
f 22/22/22 21/21/21 24/24/24 
f 25/25/25 26/26/26 27/27/27 
f 26/26/26 25/25/25 28/28/28 
f 29/29/29 30/30/30 31/31/31 
f 30/30/30 29/29/29 32/32/32 
f 30/30/30 32/32/32 33/33/33 
f 30/30/30 33/33/33 34/34/34 
f 31/31/31 35/35/35 29/29/29 
f 35/35/35 31/31/31 36/36/36 
f 37/37/37 35/35/35 36/36/36 
f 37/37/37 38/38/38 35/35/35 
f 37/37/37 39/39/39 38/38/38 
f 39/39/39 37/37/37 40/40/40 
f 41/41/41 42/42/42 43/43/43 
f 43/43/43 42/42/42 44/44/44 
f 45/45/45 46/46/46 47/47/47 
f 45/45/45 48/48/48 46/46/46 
f 48/48/48 45/45/45 49/49/49 
f 47/47/47 50/50/50 45/45/45 
f 47/47/47 51/51/51 50/50/50 
f 51/51/51 47/47/47 52/52/52 
f 51/51/51 52/52/52 53/53/53 
f 53/53/53 54/54/54 51/51/51 
f 54/54/54 53/53/53 55/55/55 
f 55/55/55 56/56/56 54/54/54 
f 57/57/57 58/58/58 59/59/59 
f 58/58/58 57/57/57 60/60/60 
f 61/61/61 62/62/62 63/63/63 
f 64/64/64 62/62/62 61/61/61 
f 64/64/64 65/65/65 62/62/62 
f 61/61/61 63/63/63 66/66/66 
f 63/63/63 67/67/67 66/66/66 
f 67/67/67 63/63/63 68/68/68 
f 67/67/67 68/68/68 69/69/69 
f 67/67/67 69/69/69 70/70/70 
f 69/69/69 71/71/71 70/70/70 
f 71/71/71 69/69/69 72/72/72 

