# This file is brought to you by Roblox Corporation
# Generated by Roblox Studio

mtllib r.mtl

g Meshpart1

v 0.529513 -0.548848 -0.502753 
v 0.529513 -0.788659 0.507203 
v 0.529513 -0.788659 -0.502753 
v 0.529513 -0.548848 0.507203 
v 0.529513 -0.788659 -0.502753 
v 0.529513 -0.788659 0.507203 
v 0.529512 -0.828818 0.411965 
v 0.529512 -0.828818 -0.407515 
v -0.476527 -0.462329 -0.45226 
v -0.476527 -0.462329 0.45671 
v 0.00540376 -0.462329 -0.45226 
v 0.00540376 -0.462329 0.45671 
v 0.00540376 -0.462329 0.45671 
v 0.529513 -0.548848 -0.502753 
v 0.00540376 -0.462329 -0.45226 
v 0.529513 -0.548848 0.507203 
v -0.503298 -0.548848 0.507203 
v 0.529513 -0.548848 0.507203 
v 0.00540376 -0.462329 0.45671 
v -0.476527 -0.462329 0.45671 
v -0.503298 -0.788659 0.507203 
v 0.529513 -0.788659 0.507203 
v 0.529513 -0.548848 0.507203 
v -0.503298 -0.548848 0.507203 
v -0.503298 -0.788659 0.507203 
v -0.503298 -0.788659 -0.502753 
v -0.452803 -0.828818 -0.407515 
v -0.452803 -0.828818 0.411965 
v -0.503298 -0.548848 -0.502753 
v -0.503298 -0.548848 0.507203 
v -0.476527 -0.462329 -0.45226 
v -0.476527 -0.462329 0.45671 
v -0.503298 -0.548848 0.507203 
v -0.503298 -0.548848 -0.502753 
v -0.503298 -0.788659 -0.502753 
v -0.503298 -0.788659 0.507203 
v -0.452803 -0.828818 0.411965 
v 0.529512 -0.828818 0.411965 
v 0.529513 -0.788659 0.507203 
v -0.503298 -0.788659 0.507203 
v 0.529513 -0.788659 -0.502753 
v -0.452803 -0.828818 -0.407515 
v -0.503298 -0.788659 -0.502753 
v 0.529512 -0.828818 -0.407515 
v -0.452803 -0.828818 -0.407515 
v 0.529512 -0.828818 -0.407515 
v 0.529512 -0.828818 0.411965 
v -0.452803 -0.828818 0.411965 
v 0.529513 -0.548848 -0.502753 
v -0.503298 -0.548848 -0.502753 
v 0.00540376 -0.462329 -0.45226 
v -0.476527 -0.462329 -0.45226 
v -0.503298 -0.548848 -0.502753 
v 0.529513 -0.548848 -0.502753 
v 0.529513 -0.788659 -0.502753 
v -0.503298 -0.788659 -0.502753 

vn 1 0 0 
vn 1 0 0 
vn 1 0 0 
vn 1 0 0 
vn 1 0 0 
vn 1 0 0 
vn 1 0 0 
vn 1 0 0 
vn 0 1 0 
vn 0 1 0 
vn 0 1 0 
vn 0 1 0 
vn 0.165354 0.984252 0 
vn 0.165354 0.984252 0 
vn 0.165354 0.984252 0 
vn 0.165354 0.984252 0 
vn 0 0.503937 0.866142 
vn 0 0.503937 0.866142 
vn 0 0.503937 0.866142 
vn 0 0.503937 0.866142 
vn 0 0 1 
vn 0 0 1 
vn 0 0 1 
vn 0 0 1 
vn -0.622047 -0.779528 0 
vn -0.622047 -0.779528 0 
vn -0.622047 -0.779528 0 
vn -0.622047 -0.779528 0 
vn -0.952756 0.299213 0 
vn -0.952756 0.299213 0 
vn -0.952756 0.299213 0 
vn -0.952756 0.299213 0 
vn -1 0 0 
vn -1 0 0 
vn -1 0 0 
vn -1 0 0 
vn 0 -0.92126 0.385827 
vn 0 -0.92126 0.385827 
vn 0 -0.92126 0.385827 
vn 0 -0.92126 0.385827 
vn 0 -0.92126 -0.385827 
vn 0 -0.92126 -0.385827 
vn 0 -0.92126 -0.385827 
vn 0 -0.92126 -0.385827 
vn 0 -1 0 
vn 0 -1 0 
vn 0 -1 0 
vn 0 -1 0 
vn 0 0.503937 -0.866142 
vn 0 0.503937 -0.866142 
vn 0 0.503937 -0.866142 
vn 0 0.503937 -0.866142 
vn 0 0 -1 
vn 0 0 -1 
vn 0 0 -1 
vn 0 0 -1 

vt 58.0631 -12.9879 
vt 57.9369 -13.0179 
vt 58.0631 -13.0179 
vt 57.9369 -12.9879 
vt 58.0631 -13.0179 
vt 57.9369 -13.0179 
vt 57.9488 -13.0229 
vt 58.0512 -13.0229 
vt 58.0612 -13.0568 
vt 58.0612 -12.9432 
vt 58.001 -13.0568 
vt 58.001 -12.9432 
vt 58.001 -12.9432 
vt 57.9354 -13.0631 
vt 58.001 -13.0568 
vt 57.9354 -12.9369 
vt 57.9354 -12.9879 
vt 58.0646 -12.9879 
vt 57.999 -12.9771 
vt 57.9388 -12.9771 
vt 57.9354 -13.0179 
vt 58.0646 -13.0179 
vt 58.0646 -12.9879 
vt 57.9354 -12.9879 
vt 58.0631 -13.0179 
vt 57.9369 -13.0179 
vt 57.9488 -13.0229 
vt 58.0512 -13.0229 
vt 57.9369 -12.9879 
vt 58.0631 -12.9879 
vt 57.9432 -12.9771 
vt 58.0568 -12.9771 
vt 58.0631 -12.9879 
vt 57.9369 -12.9879 
vt 57.9369 -13.0179 
vt 58.0631 -13.0179 
vt 57.9418 -12.9488 
vt 58.0646 -12.9488 
vt 58.0646 -12.9369 
vt 57.9354 -12.9369 
vt 58.0646 -13.0631 
vt 57.9418 -13.0512 
vt 57.9354 -13.0631 
vt 58.0646 -13.0512 
vt 57.9418 -13.0512 
vt 58.0646 -13.0512 
vt 58.0646 -12.9488 
vt 57.9418 -12.9488 
vt 57.9354 -12.9879 
vt 58.0646 -12.9879 
vt 58.001 -12.9771 
vt 58.0612 -12.9771 
vt 58.0646 -12.9879 
vt 57.9354 -12.9879 
vt 57.9354 -13.0179 
vt 58.0646 -13.0179 

usemtl Meshpart1Mtl

f 1/1/1 2/2/2 3/3/3 
f 2/2/2 1/1/1 4/4/4 
f 5/5/5 6/6/6 7/7/7 
f 5/5/5 7/7/7 8/8/8 
f 9/9/9 10/10/10 11/11/11 
f 11/11/11 10/10/10 12/12/12 
f 13/13/13 14/14/14 15/15/15 
f 14/14/14 13/13/13 16/16/16 
f 17/17/17 18/18/18 19/19/19 
f 17/17/17 19/19/19 20/20/20 
f 21/21/21 22/22/22 23/23/23 
f 21/21/21 23/23/23 24/24/24 
f 25/25/25 26/26/26 27/27/27 
f 25/25/25 27/27/27 28/28/28 
f 29/29/29 30/30/30 31/31/31 
f 31/31/31 30/30/30 32/32/32 
f 33/33/33 34/34/34 35/35/35 
f 35/35/35 36/36/36 33/33/33 
f 37/37/37 38/38/38 39/39/39 
f 39/39/39 40/40/40 37/37/37 
f 41/41/41 42/42/42 43/43/43 
f 42/42/42 41/41/41 44/44/44 
f 45/45/45 46/46/46 47/47/47 
f 45/45/45 47/47/47 48/48/48 
f 49/49/49 50/50/50 51/51/51 
f 52/52/52 51/51/51 50/50/50 
f 53/53/53 54/54/54 55/55/55 
f 53/53/53 55/55/55 56/56/56 

g Meshpart2

v -0.235802 -0.602676 0.517206 
v -0.235802 -0.991695 -0.51275 
v -0.235802 -0.991695 0.517206 
v -0.235802 -0.602676 -0.51275 
v -0.235802 -0.991695 0.517206 
v -0.235802 -0.991695 -0.51275 
v -0.235801 -1.05684 -0.415626 
v -0.235801 -1.05684 0.420082 
v 0.509681 -0.462326 0.465713 
v 0.509681 -0.462326 -0.461257 
v 0.152567 -0.462326 0.465713 
v 0.152567 -0.462326 -0.461257 
v 0.152567 -0.462326 -0.461257 
v -0.235802 -0.602676 0.517206 
v 0.152567 -0.462326 0.465713 
v -0.235802 -0.602676 -0.51275 
v 0.529518 -0.602676 -0.51275 
v -0.235802 -0.602676 -0.51275 
v 0.152567 -0.462326 -0.461257 
v 0.509681 -0.462326 -0.461257 
v 0.529518 -0.991695 -0.51275 
v -0.235802 -0.991695 -0.51275 
v -0.235802 -0.602676 -0.51275 
v 0.529518 -0.602676 -0.51275 
v 0.529518 -0.991695 -0.51275 
v 0.529518 -0.991695 0.517206 
v 0.492101 -1.05684 0.420082 
v 0.492101 -1.05684 -0.415626 
v 0.529518 -0.602676 0.517206 
v 0.529518 -0.602676 -0.51275 
v 0.509681 -0.462326 0.465713 
v 0.509681 -0.462326 -0.461257 
v 0.529518 -0.602676 -0.51275 
v 0.529518 -0.602676 0.517206 
v 0.529518 -0.991695 0.517206 
v 0.529518 -0.991695 -0.51275 
v 0.492101 -1.05684 -0.415626 
v -0.235801 -1.05684 -0.415626 
v -0.235802 -0.991695 -0.51275 
v 0.529518 -0.991695 -0.51275 
v -0.235802 -0.991695 0.517206 
v 0.492101 -1.05684 0.420082 
v 0.529518 -0.991695 0.517206 
v -0.235801 -1.05684 0.420082 
v 0.492101 -1.05684 0.420082 
v -0.235801 -1.05684 0.420082 
v -0.235801 -1.05684 -0.415626 
v 0.492101 -1.05684 -0.415626 
v -0.235802 -0.602676 0.517206 
v 0.529518 -0.602676 0.517206 
v 0.152567 -0.462326 0.465713 
v 0.509681 -0.462326 0.465713 
v 0.529518 -0.602676 0.517206 
v -0.235802 -0.602676 0.517206 
v -0.235802 -0.991695 0.517206 
v 0.529518 -0.991695 0.517206 

vn -1 0 0 
vn -1 0 0 
vn -1 0 0 
vn -1 0 0 
vn -1 0 0 
vn -1 0 0 
vn -1 0 0 
vn -1 0 0 
vn 0 1 0 
vn 0 1 0 
vn 0 1 0 
vn 0 1 0 
vn -0.338583 0.937008 0 
vn -0.338583 0.937008 0 
vn -0.338583 0.937008 0 
vn -0.338583 0.937008 0 
vn 0 0.346457 -0.937008 
vn 0 0.346457 -0.937008 
vn 0 0.346457 -0.937008 
vn 0 0.346457 -0.937008 
vn 0 0 -1 
vn 0 0 -1 
vn 0 0 -1 
vn 0 0 -1 
vn 0.866142 -0.496063 0 
vn 0.866142 -0.496063 0 
vn 0.866142 -0.496063 0 
vn 0.866142 -0.496063 0 
vn 0.992126 0.141732 0 
vn 0.992126 0.141732 0 
vn 0.992126 0.141732 0 
vn 0.992126 0.141732 0 
vn 1 0 0 
vn 1 0 0 
vn 1 0 0 
vn 1 0 0 
vn 0 -0.826772 -0.559055 
vn 0 -0.826772 -0.559055 
vn 0 -0.826772 -0.559055 
vn 0 -0.826772 -0.559055 
vn 0 -0.826772 0.559055 
vn 0 -0.826772 0.559055 
vn 0 -0.826772 0.559055 
vn 0 -0.826772 0.559055 
vn 0 -1 0 
vn 0 -1 0 
vn 0 -1 0 
vn 0 -1 0 
vn 0 0.346457 0.937008 
vn 0 0.346457 0.937008 
vn 0 0.346457 0.937008 
vn 0 0.346457 0.937008 
vn 0 0 1 
vn 0 0 1 
vn 0 0 1 
vn 0 0 1 

vt 50.0644 -2.98039 
vt 49.9356 -3.02901 
vt 50.0644 -3.02901 
vt 49.9356 -2.98039 
vt 50.0644 -3.02901 
vt 49.9356 -3.02901 
vt 49.9478 -3.03716 
vt 50.0522 -3.03716 
vt 50.0454 -3.05794 
vt 50.0454 -2.94206 
vt 50.0007 -3.05794 
vt 50.0007 -2.94206 
vt 50.0007 -2.94206 
vt 49.9522 -3.06437 
vt 50.0007 -3.05794 
vt 49.9522 -2.93563 
vt 49.9522 -2.98039 
vt 50.0478 -2.98039 
vt 49.9993 -2.96284 
vt 49.9546 -2.96284 
vt 49.9522 -3.02901 
vt 50.0478 -3.02901 
vt 50.0478 -2.98039 
vt 49.9522 -2.98039 
vt 50.0644 -3.02901 
vt 49.9356 -3.02901 
vt 49.9478 -3.03716 
vt 50.0522 -3.03716 
vt 49.9356 -2.98039 
vt 50.0644 -2.98039 
vt 49.9421 -2.96284 
vt 50.0579 -2.96284 
vt 50.0644 -2.98039 
vt 49.9356 -2.98039 
vt 49.9356 -3.02901 
vt 50.0644 -3.02901 
vt 49.9568 -2.94777 
vt 50.0478 -2.94777 
vt 50.0478 -2.93563 
vt 49.9522 -2.93563 
vt 50.0478 -3.06437 
vt 49.9568 -3.05223 
vt 49.9522 -3.06437 
vt 50.0478 -3.05223 
vt 49.9568 -3.05223 
vt 50.0478 -3.05223 
vt 50.0478 -2.94777 
vt 49.9568 -2.94777 
vt 49.9522 -2.98039 
vt 50.0478 -2.98039 
vt 50.0007 -2.96284 
vt 50.0454 -2.96284 
vt 50.0478 -2.98039 
vt 49.9522 -2.98039 
vt 49.9522 -3.02901 
vt 50.0478 -3.02901 

usemtl Meshpart1Mtl

f 57/57/57 58/58/58 59/59/59 
f 58/58/58 57/57/57 60/60/60 
f 61/61/61 62/62/62 63/63/63 
f 61/61/61 63/63/63 64/64/64 
f 65/65/65 66/66/66 67/67/67 
f 67/67/67 66/66/66 68/68/68 
f 69/69/69 70/70/70 71/71/71 
f 70/70/70 69/69/69 72/72/72 
f 73/73/73 74/74/74 75/75/75 
f 73/73/73 75/75/75 76/76/76 
f 77/77/77 78/78/78 79/79/79 
f 77/77/77 79/79/79 80/80/80 
f 81/81/81 82/82/82 83/83/83 
f 81/81/81 83/83/83 84/84/84 
f 85/85/85 86/86/86 87/87/87 
f 87/87/87 86/86/86 88/88/88 
f 89/89/89 90/90/90 91/91/91 
f 91/91/91 92/92/92 89/89/89 
f 93/93/93 94/94/94 95/95/95 
f 95/95/95 96/96/96 93/93/93 
f 97/97/97 98/98/98 99/99/99 
f 98/98/98 97/97/97 100/100/100 
f 101/101/101 102/102/102 103/103/103 
f 101/101/101 103/103/103 104/104/104 
f 105/105/105 106/106/106 107/107/107 
f 108/108/108 107/107/107 106/106/106 
f 109/109/109 110/110/110 111/111/111 
f 109/109/109 111/111/111 112/112/112 

g Meshpart3

v -0.523252 1.04293 0.529826 
v -0.523252 1.04293 -0.523613 
v -0.581408 1.04293 -0.470946 
v -0.581408 1.04293 0.47716 
v 0.523671 1.04293 -0.523613 
v 0.523671 1.04293 0.529826 
v 0.581827 1.04293 -0.470946 
v 0.581827 1.04293 0.47716 
v -0.581408 -0.655289 0.47716 
v -0.523252 1.04293 0.529826 
v -0.581408 1.04293 0.47716 
v -0.523252 -0.655289 0.529826 
v 0.523671 -0.655289 0.529826 
v 0.581827 1.04293 0.47716 
v 0.523671 1.04293 0.529826 
v 0.581827 -0.655289 0.47716 
v -0.523252 1.04293 0.529826 
v -0.523252 -0.655289 0.529826 
v 0.523671 -0.655289 0.529826 
v 0.523671 1.04293 0.529826 
v 0.444895 -0.53208 -0.444347 
v -0.444476 -0.53208 -0.444347 
v -0.523252 -0.655289 -0.523613 
v 0.523671 -0.655289 -0.523613 
v -0.49388 -0.53208 -0.399606 
v -0.523252 -0.655289 -0.523613 
v -0.444476 -0.53208 -0.444347 
v -0.523252 -0.655289 -0.523613 
v -0.49388 -0.53208 -0.399606 
v -0.581408 -0.655289 -0.470946 
v 0.581827 -0.655289 -0.470946 
v 0.494299 -0.53208 -0.399606 
v 0.523671 -0.655289 -0.523613 
v 0.444895 -0.53208 -0.444347 
v 0.581827 -0.655289 -0.470946 
v 0.581827 1.04293 -0.470946 
v 0.581827 1.04293 0.47716 
v 0.581827 -0.655289 0.47716 
v -0.581408 -0.655289 -0.470946 
v -0.49388 -0.53208 0.405819 
v -0.581408 -0.655289 0.47716 
v -0.49388 -0.53208 -0.399606 
v 0.494299 -0.53208 0.405819 
v -0.444476 -0.53208 -0.444347 
v 0.444895 -0.53208 -0.444347 
v 0.494299 -0.53208 -0.399606 
v -0.49388 -0.53208 0.405819 
v -0.49388 -0.53208 -0.399606 
v -0.444476 -0.53208 0.45056 
v 0.444895 -0.53208 0.45056 
v -0.523252 1.04293 -0.523613 
v -0.523252 -0.655289 -0.523613 
v -0.581408 1.04293 -0.470946 
v -0.581408 -0.655289 -0.470946 
v 0.581827 1.04293 -0.470946 
v 0.581827 -0.655289 -0.470946 
v 0.523671 1.04293 -0.523613 
v 0.523671 -0.655289 -0.523613 
v -0.523252 -0.655289 -0.523613 
v -0.523252 1.04293 -0.523613 
v 0.523671 1.04293 -0.523613 
v 0.523671 -0.655289 -0.523613 
v -0.444476 -0.53208 0.45056 
v 0.523671 -0.655289 0.529826 
v -0.523252 -0.655289 0.529826 
v 0.444895 -0.53208 0.45056 
v 0.523671 -0.655289 0.529826 
v 0.494299 -0.53208 0.405819 
v 0.581827 -0.655289 0.47716 
v 0.494299 -0.53208 0.405819 
v 0.523671 -0.655289 0.529826 
v 0.444895 -0.53208 0.45056 
v -0.49388 -0.53208 0.405819 
v -0.523252 -0.655289 0.529826 
v -0.581408 -0.655289 0.47716 
v -0.444476 -0.53208 0.45056 
v -0.581408 -0.655289 0.47716 
v -0.581408 1.04293 0.47716 
v -0.581408 1.04293 -0.470946 
v -0.581408 -0.655289 -0.470946 
v 0.494299 -0.53208 0.405819 
v 0.581827 -0.655289 -0.470946 
v 0.581827 -0.655289 0.47716 
v 0.494299 -0.53208 -0.399606 

vn 0 1 0 
vn 0 1 0 
vn 0 1 0 
vn 0 1 0 
vn 0 1 0 
vn 0 1 0 
vn 0 1 0 
vn 0 1 0 
vn -0.669291 0 0.740157 
vn -0.669291 0 0.740157 
vn -0.669291 0 0.740157 
vn -0.669291 0 0.740157 
vn 0.669291 0 0.740157 
vn 0.669291 0 0.740157 
vn 0.669291 0 0.740157 
vn 0.669291 0 0.740157 
vn 0 0 1 
vn 0 0 1 
vn 0 0 1 
vn 0 0 1 
vn 0 -0.543307 0.84252 
vn 0 -0.543307 0.84252 
vn 0 -0.543307 0.84252 
vn 0 -0.543307 0.84252 
vn 0.496063 -0.669291 0.551181 
vn 0.496063 -0.669291 0.551181 
vn 0.496063 -0.669291 0.551181 
vn 0.496063 -0.669291 0.551181 
vn 0.496063 -0.669291 0.551181 
vn 0.496063 -0.669291 0.551181 
vn -0.496063 -0.669291 0.551181 
vn -0.496063 -0.669291 0.551181 
vn -0.496063 -0.669291 0.551181 
vn -0.496063 -0.669291 0.551181 
vn 1 0 0 
vn 1 0 0 
vn 1 0 0 
vn 1 0 0 
vn 0.818898 -0.582677 0 
vn 0.818898 -0.582677 0 
vn 0.818898 -0.582677 0 
vn 0.818898 -0.582677 0 
vn 0 -1 0 
vn 0 -1 0 
vn 0 -1 0 
vn 0 -1 0 
vn 0 -1 0 
vn 0 -1 0 
vn 0 -1 0 
vn 0 -1 0 
vn -0.669291 0 -0.740157 
vn -0.669291 0 -0.740157 
vn -0.669291 0 -0.740157 
vn -0.669291 0 -0.740157 
vn 0.669291 0 -0.740157 
vn 0.669291 0 -0.740157 
vn 0.669291 0 -0.740157 
vn 0.669291 0 -0.740157 
vn 0 0 -1 
vn 0 0 -1 
vn 0 0 -1 
vn 0 0 -1 
vn 0 -0.543307 -0.84252 
vn 0 -0.543307 -0.84252 
vn 0 -0.543307 -0.84252 
vn 0 -0.543307 -0.84252 
vn -0.496063 -0.669291 -0.551181 
vn -0.496063 -0.669291 -0.551181 
vn -0.496063 -0.669291 -0.551181 
vn -0.496063 -0.669291 -0.551181 
vn -0.496063 -0.669291 -0.551181 
vn -0.496063 -0.669291 -0.551181 
vn 0.496063 -0.669291 -0.551181 
vn 0.496063 -0.669291 -0.551181 
vn 0.496063 -0.669291 -0.551181 
vn 0.496063 -0.669291 -0.551181 
vn -1 0 0 
vn -1 0 0 
vn -1 0 0 
vn -1 0 0 
vn -0.818898 -0.582677 0 
vn -0.818898 -0.582677 0 
vn -0.818898 -0.582677 0 
vn -0.818898 -0.582677 0 

vt 62.0654 -58.9342 
vt 62.0654 -59.0658 
vt 62.0727 -59.0593 
vt 62.0727 -58.9407 
vt 61.9346 -59.0658 
vt 61.9346 -58.9342 
vt 61.9273 -59.0593 
vt 61.9273 -58.9407 
vt 62.1061 -59.0727 
vt 61.8939 -59.0654 
vt 61.8939 -59.0727 
vt 62.1061 -59.0654 
vt 62.1061 -58.9346 
vt 61.8939 -58.9273 
vt 61.8939 -58.9346 
vt 62.1061 -58.9273 
vt 61.8939 -59.0654 
vt 62.1061 -59.0654 
vt 62.1061 -58.9346 
vt 61.8939 -58.9346 
vt 62.0907 -58.9444 
vt 62.0907 -59.0556 
vt 62.1061 -59.0654 
vt 62.1061 -58.9346 
vt 62.0907 -59.0618 
vt 62.1061 -59.0654 
vt 62.0907 -59.0556 
vt 62.1061 -59.0654 
vt 62.0907 -59.0618 
vt 62.1061 -59.0727 
vt 62.1061 -58.9273 
vt 62.0907 -58.9382 
vt 62.1061 -58.9346 
vt 62.0907 -58.9444 
vt 61.8939 -59.0593 
vt 62.1061 -59.0593 
vt 62.1061 -58.9407 
vt 61.8939 -58.9407 
vt 61.8939 -59.0593 
vt 61.9093 -58.9497 
vt 61.8939 -58.9407 
vt 61.9093 -59.0503 
vt 62.0618 -58.9497 
vt 61.9444 -59.0559 
vt 62.0556 -59.0559 
vt 62.0618 -59.0503 
vt 61.9382 -58.9497 
vt 61.9382 -59.0503 
vt 61.9444 -58.9441 
vt 62.0556 -58.9441 
vt 62.1061 -59.0654 
vt 61.8939 -59.0654 
vt 62.1061 -59.0727 
vt 61.8939 -59.0727 
vt 62.1061 -58.9273 
vt 61.8939 -58.9273 
vt 62.1061 -58.9346 
vt 61.8939 -58.9346 
vt 61.8939 -59.0654 
vt 62.1061 -59.0654 
vt 62.1061 -58.9346 
vt 61.8939 -58.9346 
vt 61.9093 -59.0556 
vt 61.8939 -58.9346 
vt 61.8939 -59.0654 
vt 61.9093 -58.9444 
vt 61.8939 -58.9346 
vt 61.9093 -58.9382 
vt 61.8939 -58.9273 
vt 61.9093 -58.9382 
vt 61.8939 -58.9346 
vt 61.9093 -58.9444 
vt 61.9093 -59.0618 
vt 61.8939 -59.0654 
vt 61.8939 -59.0727 
vt 61.9093 -59.0556 
vt 62.1061 -58.9407 
vt 61.8939 -58.9407 
vt 61.8939 -59.0593 
vt 62.1061 -59.0593 
vt 62.0907 -58.9497 
vt 62.1061 -59.0593 
vt 62.1061 -58.9407 
vt 62.0907 -59.0503 

usemtl Meshpart3Mtl

f 113/113/113 114/114/114 115/115/115 
f 113/113/113 115/115/115 116/116/116 
f 114/114/114 113/113/113 117/117/117 
f 118/118/118 117/117/117 113/113/113 
f 117/117/117 118/118/118 119/119/119 
f 119/119/119 118/118/118 120/120/120 
f 121/121/121 122/122/122 123/123/123 
f 122/122/122 121/121/121 124/124/124 
f 125/125/125 126/126/126 127/127/127 
f 126/126/126 125/125/125 128/128/128 
f 129/129/129 130/130/130 131/131/131 
f 129/129/129 131/131/131 132/132/132 
f 133/133/133 134/134/134 135/135/135 
f 135/135/135 136/136/136 133/133/133 
f 137/137/137 138/138/138 139/139/139 
f 140/140/140 141/141/141 142/142/142 
f 143/143/143 144/144/144 145/145/145 
f 146/146/146 145/145/145 144/144/144 
f 147/147/147 148/148/148 149/149/149 
f 147/147/147 149/149/149 150/150/150 
f 151/151/151 152/152/152 153/153/153 
f 152/152/152 151/151/151 154/154/154 
f 155/155/155 156/156/156 157/157/157 
f 155/155/155 157/157/157 158/158/158 
f 155/155/155 159/159/159 156/156/156 
f 156/156/156 159/159/159 160/160/160 
f 159/159/159 155/155/155 161/161/161 
f 161/161/161 155/155/155 162/162/162 
f 163/163/163 164/164/164 165/165/165 
f 166/166/166 165/165/165 164/164/164 
f 167/167/167 168/168/168 169/169/169 
f 170/170/170 169/169/169 168/168/168 
f 171/171/171 172/172/172 173/173/173 
f 171/171/171 173/173/173 174/174/174 
f 175/175/175 176/176/176 177/177/177 
f 176/176/176 175/175/175 178/178/178 
f 179/179/179 180/180/180 181/181/181 
f 182/182/182 183/183/183 184/184/184 
f 185/185/185 186/186/186 187/187/187 
f 188/188/188 186/186/186 185/185/185 
f 189/189/189 190/190/190 191/191/191 
f 189/189/189 191/191/191 192/192/192 
f 193/193/193 194/194/194 195/195/195 
f 194/194/194 193/193/193 196/196/196 

